<svg xmlns="http://www.w3.org/2000/svg" width="1200" height="760" viewBox="0 0 1200 760">
<rect width="100%" height="100%" fill="#ffffff" />
<rect x="28" y="24" width="1144" height="712" rx="24" fill="#ffffff" stroke="#e5e7eb" stroke-width="1" />
<text x="600.00" y="54.00" font-family="Inter, Helvetica, Arial, sans-serif" font-size="26" fill="#111827" text-anchor="middle" font-weight="bold">Finding the ef_search Sweet Spot</text>
<text x="600.00" y="82.00" font-family="Inter, Helvetica, Arial, sans-serif" font-size="14" fill="#4b5563" text-anchor="middle" font-weight="normal">Final reranked quality improves quickly, while retrieval p95 latency shows the cost of higher search effort</text>
<line x1="100.00" y1="112.00" x2="128.00" y2="112.00" stroke="#2563eb" stroke-width="3.50" />
<circle cx="114.00" cy="112.00" r="4.50" fill="#2563eb" />
<text x="140.00" y="117.00" font-family="Inter, Helvetica, Arial, sans-serif" font-size="13" fill="#4b5563" text-anchor="start" font-weight="normal">Avg reranked recall@5</text>
<line x1="400.00" y1="112.00" x2="428.00" y2="112.00" stroke="#16a34a" stroke-width="3.50" />
<circle cx="414.00" cy="112.00" r="4.50" fill="#16a34a" />
<text x="440.00" y="117.00" font-family="Inter, Helvetica, Arial, sans-serif" font-size="13" fill="#4b5563" text-anchor="start" font-weight="normal">Min reranked recall@5</text>
<line x1="700.00" y1="112.00" x2="728.00" y2="112.00" stroke="#dc2626" stroke-width="3.50" />
<circle cx="714.00" cy="112.00" r="4.50" fill="#dc2626" />
<text x="740.00" y="117.00" font-family="Inter, Helvetica, Arial, sans-serif" font-size="13" fill="#4b5563" text-anchor="start" font-weight="normal">Retrieval p95 latency</text>
<line x1="100.00" y1="140.00" x2="1090.00" y2="140.00" stroke="#f1f5f9" stroke-width="1.00" />
<line x1="100.00" y1="655.00" x2="1090.00" y2="655.00" stroke="#e5e7eb" stroke-width="1.00" stroke-dasharray="4 6" />
<text x="86.00" y="660.00" font-family="Inter, Helvetica, Arial, sans-serif" font-size="12" fill="#4b5563" text-anchor="end" font-weight="normal">0.00</text>
<text x="1104.00" y="660.00" font-family="Inter, Helvetica, Arial, sans-serif" font-size="12" fill="#4b5563" text-anchor="start" font-weight="normal">49.6</text>
<line x1="100.00" y1="555.00" x2="1090.00" y2="555.00" stroke="#e5e7eb" stroke-width="1.00" stroke-dasharray="4 6" />
<text x="86.00" y="560.00" font-family="Inter, Helvetica, Arial, sans-serif" font-size="12" fill="#4b5563" text-anchor="end" font-weight="normal">0.20</text>
<text x="1104.00" y="560.00" font-family="Inter, Helvetica, Arial, sans-serif" font-size="12" fill="#4b5563" text-anchor="start" font-weight="normal">128</text>
<line x1="100.00" y1="455.00" x2="1090.00" y2="455.00" stroke="#e5e7eb" stroke-width="1.00" stroke-dasharray="4 6" />
<text x="86.00" y="460.00" font-family="Inter, Helvetica, Arial, sans-serif" font-size="12" fill="#4b5563" text-anchor="end" font-weight="normal">0.40</text>
<text x="1104.00" y="460.00" font-family="Inter, Helvetica, Arial, sans-serif" font-size="12" fill="#4b5563" text-anchor="start" font-weight="normal">207</text>
<line x1="100.00" y1="355.00" x2="1090.00" y2="355.00" stroke="#e5e7eb" stroke-width="1.00" stroke-dasharray="4 6" />
<text x="86.00" y="360.00" font-family="Inter, Helvetica, Arial, sans-serif" font-size="12" fill="#4b5563" text-anchor="end" font-weight="normal">0.60</text>
<text x="1104.00" y="360.00" font-family="Inter, Helvetica, Arial, sans-serif" font-size="12" fill="#4b5563" text-anchor="start" font-weight="normal">286</text>
<line x1="100.00" y1="255.00" x2="1090.00" y2="255.00" stroke="#e5e7eb" stroke-width="1.00" stroke-dasharray="4 6" />
<text x="86.00" y="260.00" font-family="Inter, Helvetica, Arial, sans-serif" font-size="12" fill="#4b5563" text-anchor="end" font-weight="normal">0.80</text>
<text x="1104.00" y="260.00" font-family="Inter, Helvetica, Arial, sans-serif" font-size="12" fill="#4b5563" text-anchor="start" font-weight="normal">365</text>
<line x1="100.00" y1="155.00" x2="1090.00" y2="155.00" stroke="#e5e7eb" stroke-width="1.00" stroke-dasharray="4 6" />
<text x="86.00" y="160.00" font-family="Inter, Helvetica, Arial, sans-serif" font-size="12" fill="#4b5563" text-anchor="end" font-weight="normal">1.00</text>
<text x="1104.00" y="160.00" font-family="Inter, Helvetica, Arial, sans-serif" font-size="12" fill="#4b5563" text-anchor="start" font-weight="normal">443</text>
<line x1="100.00" y1="155.00" x2="100.00" y2="655.00" stroke="#374151" stroke-width="1.30" />
<line x1="1090.00" y1="155.00" x2="1090.00" y2="655.00" stroke="#374151" stroke-width="1.30" />
<line x1="100.00" y1="655.00" x2="1090.00" y2="655.00" stroke="#374151" stroke-width="1.30" />
<text x="38.00" y="133.00" font-family="Inter, Helvetica, Arial, sans-serif" font-size="14" fill="#111827" text-anchor="start" font-weight="bold">Recall@5</text>
<text x="1094.00" y="133.00" font-family="Inter, Helvetica, Arial, sans-serif" font-size="14" fill="#111827" text-anchor="end" font-weight="bold">Retrieval p95 latency (ms)</text>
<line x1="100.00" y1="655.00" x2="100.00" y2="662.00" stroke="#374151" stroke-width="1.20" />
<text x="100.00" y="684.00" font-family="Inter, Helvetica, Arial, sans-serif" font-size="12" fill="#4b5563" text-anchor="middle" font-weight="normal">20</text>
<line x1="152.11" y1="655.00" x2="152.11" y2="662.00" stroke="#374151" stroke-width="1.20" />
<text x="152.11" y="684.00" font-family="Inter, Helvetica, Arial, sans-serif" font-size="12" fill="#4b5563" text-anchor="middle" font-weight="normal">40</text>
<line x1="204.21" y1="655.00" x2="204.21" y2="662.00" stroke="#374151" stroke-width="1.20" />
<text x="204.21" y="684.00" font-family="Inter, Helvetica, Arial, sans-serif" font-size="12" fill="#4b5563" text-anchor="middle" font-weight="normal">60</text>
<line x1="256.32" y1="655.00" x2="256.32" y2="662.00" stroke="#374151" stroke-width="1.20" />
<text x="256.32" y="684.00" font-family="Inter, Helvetica, Arial, sans-serif" font-size="12" fill="#4b5563" text-anchor="middle" font-weight="normal">80</text>
<line x1="360.53" y1="655.00" x2="360.53" y2="662.00" stroke="#374151" stroke-width="1.20" />
<text x="360.53" y="684.00" font-family="Inter, Helvetica, Arial, sans-serif" font-size="12" fill="#4b5563" text-anchor="middle" font-weight="normal">120</text>
<line x1="464.74" y1="655.00" x2="464.74" y2="662.00" stroke="#374151" stroke-width="1.20" />
<text x="464.74" y="684.00" font-family="Inter, Helvetica, Arial, sans-serif" font-size="12" fill="#4b5563" text-anchor="middle" font-weight="normal">160</text>
<line x1="568.95" y1="655.00" x2="568.95" y2="662.00" stroke="#374151" stroke-width="1.20" />
<text x="568.95" y="684.00" font-family="Inter, Helvetica, Arial, sans-serif" font-size="12" fill="#4b5563" text-anchor="middle" font-weight="normal">200</text>
<line x1="829.47" y1="655.00" x2="829.47" y2="662.00" stroke="#374151" stroke-width="1.20" />
<text x="829.47" y="684.00" font-family="Inter, Helvetica, Arial, sans-serif" font-size="12" fill="#4b5563" text-anchor="middle" font-weight="normal">300</text>
<line x1="1090.00" y1="655.00" x2="1090.00" y2="662.00" stroke="#374151" stroke-width="1.20" />
<text x="1090.00" y="684.00" font-family="Inter, Helvetica, Arial, sans-serif" font-size="12" fill="#4b5563" text-anchor="middle" font-weight="normal">400</text>
<text x="600.00" y="726.00" font-family="Inter, Helvetica, Arial, sans-serif" font-size="14" fill="#111827" text-anchor="middle" font-weight="bold">ef_search</text>
<polyline points="100.00,264.09 152.11,188.84 204.21,178.74 256.32,173.18 360.53,167.12 464.74,163.08 568.95,161.57 829.47,160.05 1090.00,160.05" fill="none" stroke="#2563eb" stroke-width="3.5" stroke-linejoin="round" stroke-linecap="round" />
<circle cx="100.00" cy="264.09" r="5.00" fill="#2563eb" />
<circle cx="152.11" cy="188.84" r="5.00" fill="#2563eb" />
<circle cx="204.21" cy="178.74" r="5.00" fill="#2563eb" />
<circle cx="256.32" cy="173.18" r="5.00" fill="#2563eb" />
<circle cx="360.53" cy="167.12" r="5.00" fill="#2563eb" />
<circle cx="464.74" cy="163.08" r="5.00" fill="#2563eb" />
<circle cx="568.95" cy="161.57" r="5.00" fill="#2563eb" />
<circle cx="829.47" cy="160.05" r="5.00" fill="#2563eb" />
<circle cx="1090.00" cy="160.05" r="5.00" fill="#2563eb" />
<polyline points="100.00,655.00 152.11,655.00 204.21,555.00 256.32,455.00 360.53,455.00 464.74,355.00 568.95,355.00 829.47,255.00 1090.00,255.00" fill="none" stroke="#16a34a" stroke-width="3.5" stroke-linejoin="round" stroke-linecap="round" />
<circle cx="100.00" cy="655.00" r="5.00" fill="#16a34a" />
<circle cx="152.11" cy="655.00" r="5.00" fill="#16a34a" />
<circle cx="204.21" cy="555.00" r="5.00" fill="#16a34a" />
<circle cx="256.32" cy="455.00" r="5.00" fill="#16a34a" />
<circle cx="360.53" cy="455.00" r="5.00" fill="#16a34a" />
<circle cx="464.74" cy="355.00" r="5.00" fill="#16a34a" />
<circle cx="568.95" cy="355.00" r="5.00" fill="#16a34a" />
<circle cx="829.47" cy="255.00" r="5.00" fill="#16a34a" />
<circle cx="1090.00" cy="255.00" r="5.00" fill="#16a34a" />
<polyline points="100.00,606.61 152.11,582.43 204.21,571.89 256.32,599.90 360.53,575.05 464.74,272.04 568.95,203.39 829.47,579.60 1090.00,269.54" fill="none" stroke="#dc2626" stroke-width="3.5" stroke-linejoin="round" stroke-linecap="round" />
<circle cx="100.00" cy="606.61" r="5.00" fill="#dc2626" />
<circle cx="152.11" cy="582.43" r="5.00" fill="#dc2626" />
<circle cx="204.21" cy="571.89" r="5.00" fill="#dc2626" />
<circle cx="256.32" cy="599.90" r="5.00" fill="#dc2626" />
<circle cx="360.53" cy="575.05" r="5.00" fill="#dc2626" />
<circle cx="464.74" cy="272.04" r="5.00" fill="#dc2626" />
<circle cx="568.95" cy="203.39" r="5.00" fill="#dc2626" />
<circle cx="829.47" cy="579.60" r="5.00" fill="#dc2626" />
<circle cx="1090.00" cy="269.54" r="5.00" fill="#dc2626" />
</svg>