<svg xmlns="http://www.w3.org/2000/svg" width="1200" height="760" viewBox="0 0 1200 760">
<rect width="100%" height="100%" fill="#ffffff" />
<rect x="28" y="24" width="1144" height="712" rx="24" fill="#ffffff" stroke="#e5e7eb" stroke-width="1" />
<text x="600.00" y="54.00" font-family="Inter, Helvetica, Arial, sans-serif" font-size="26" fill="#111827" text-anchor="middle" font-weight="bold">Retrieval Quality vs Final Reranked Quality</text>
<text x="600.00" y="82.00" font-family="Inter, Helvetica, Arial, sans-serif" font-size="14" fill="#4b5563" text-anchor="middle" font-weight="normal">Reranking quality depends on whether retrieval first captures the right candidate set</text>
<line x1="100.00" y1="112.00" x2="128.00" y2="112.00" stroke="#7c3aed" stroke-width="3.50" />
<circle cx="114.00" cy="112.00" r="4.50" fill="#7c3aed" />
<text x="140.00" y="117.00" font-family="Inter, Helvetica, Arial, sans-serif" font-size="13" fill="#4b5563" text-anchor="start" font-weight="normal">Avg retrieval recall@5</text>
<line x1="420.00" y1="112.00" x2="448.00" y2="112.00" stroke="#ea580c" stroke-width="3.50" />
<circle cx="434.00" cy="112.00" r="4.50" fill="#ea580c" />
<text x="460.00" y="117.00" font-family="Inter, Helvetica, Arial, sans-serif" font-size="13" fill="#4b5563" text-anchor="start" font-weight="normal">Avg reranked recall@5</text>
<line x1="100.00" y1="140.00" x2="1090.00" y2="140.00" stroke="#f1f5f9" stroke-width="1.00" />
<line x1="100.00" y1="655.00" x2="1090.00" y2="655.00" stroke="#e5e7eb" stroke-width="1.00" stroke-dasharray="4 6" />
<text x="86.00" y="660.00" font-family="Inter, Helvetica, Arial, sans-serif" font-size="12" fill="#4b5563" text-anchor="end" font-weight="normal">0.70</text>
<line x1="100.00" y1="555.00" x2="1090.00" y2="555.00" stroke="#e5e7eb" stroke-width="1.00" stroke-dasharray="4 6" />
<text x="86.00" y="560.00" font-family="Inter, Helvetica, Arial, sans-serif" font-size="12" fill="#4b5563" text-anchor="end" font-weight="normal">0.76</text>
<line x1="100.00" y1="455.00" x2="1090.00" y2="455.00" stroke="#e5e7eb" stroke-width="1.00" stroke-dasharray="4 6" />
<text x="86.00" y="460.00" font-family="Inter, Helvetica, Arial, sans-serif" font-size="12" fill="#4b5563" text-anchor="end" font-weight="normal">0.82</text>
<line x1="100.00" y1="355.00" x2="1090.00" y2="355.00" stroke="#e5e7eb" stroke-width="1.00" stroke-dasharray="4 6" />
<text x="86.00" y="360.00" font-family="Inter, Helvetica, Arial, sans-serif" font-size="12" fill="#4b5563" text-anchor="end" font-weight="normal">0.88</text>
<line x1="100.00" y1="255.00" x2="1090.00" y2="255.00" stroke="#e5e7eb" stroke-width="1.00" stroke-dasharray="4 6" />
<text x="86.00" y="260.00" font-family="Inter, Helvetica, Arial, sans-serif" font-size="12" fill="#4b5563" text-anchor="end" font-weight="normal">0.94</text>
<line x1="100.00" y1="155.00" x2="1090.00" y2="155.00" stroke="#e5e7eb" stroke-width="1.00" stroke-dasharray="4 6" />
<text x="86.00" y="160.00" font-family="Inter, Helvetica, Arial, sans-serif" font-size="12" fill="#4b5563" text-anchor="end" font-weight="normal">1.00</text>
<line x1="100.00" y1="155.00" x2="100.00" y2="655.00" stroke="#374151" stroke-width="1.30" />
<line x1="1090.00" y1="155.00" x2="1090.00" y2="655.00" stroke="#374151" stroke-width="1.30" />
<line x1="100.00" y1="655.00" x2="1090.00" y2="655.00" stroke="#374151" stroke-width="1.30" />
<text x="38.00" y="133.00" font-family="Inter, Helvetica, Arial, sans-serif" font-size="14" fill="#111827" text-anchor="start" font-weight="bold">Recall@5</text>
<line x1="100.00" y1="655.00" x2="100.00" y2="662.00" stroke="#374151" stroke-width="1.20" />
<text x="100.00" y="684.00" font-family="Inter, Helvetica, Arial, sans-serif" font-size="12" fill="#4b5563" text-anchor="middle" font-weight="normal">20</text>
<line x1="152.11" y1="655.00" x2="152.11" y2="662.00" stroke="#374151" stroke-width="1.20" />
<text x="152.11" y="684.00" font-family="Inter, Helvetica, Arial, sans-serif" font-size="12" fill="#4b5563" text-anchor="middle" font-weight="normal">40</text>
<line x1="204.21" y1="655.00" x2="204.21" y2="662.00" stroke="#374151" stroke-width="1.20" />
<text x="204.21" y="684.00" font-family="Inter, Helvetica, Arial, sans-serif" font-size="12" fill="#4b5563" text-anchor="middle" font-weight="normal">60</text>
<line x1="256.32" y1="655.00" x2="256.32" y2="662.00" stroke="#374151" stroke-width="1.20" />
<text x="256.32" y="684.00" font-family="Inter, Helvetica, Arial, sans-serif" font-size="12" fill="#4b5563" text-anchor="middle" font-weight="normal">80</text>
<line x1="360.53" y1="655.00" x2="360.53" y2="662.00" stroke="#374151" stroke-width="1.20" />
<text x="360.53" y="684.00" font-family="Inter, Helvetica, Arial, sans-serif" font-size="12" fill="#4b5563" text-anchor="middle" font-weight="normal">120</text>
<line x1="464.74" y1="655.00" x2="464.74" y2="662.00" stroke="#374151" stroke-width="1.20" />
<text x="464.74" y="684.00" font-family="Inter, Helvetica, Arial, sans-serif" font-size="12" fill="#4b5563" text-anchor="middle" font-weight="normal">160</text>
<line x1="568.95" y1="655.00" x2="568.95" y2="662.00" stroke="#374151" stroke-width="1.20" />
<text x="568.95" y="684.00" font-family="Inter, Helvetica, Arial, sans-serif" font-size="12" fill="#4b5563" text-anchor="middle" font-weight="normal">200</text>
<line x1="829.47" y1="655.00" x2="829.47" y2="662.00" stroke="#374151" stroke-width="1.20" />
<text x="829.47" y="684.00" font-family="Inter, Helvetica, Arial, sans-serif" font-size="12" fill="#4b5563" text-anchor="middle" font-weight="normal">300</text>
<line x1="1090.00" y1="655.00" x2="1090.00" y2="662.00" stroke="#374151" stroke-width="1.20" />
<text x="1090.00" y="684.00" font-family="Inter, Helvetica, Arial, sans-serif" font-size="12" fill="#4b5563" text-anchor="middle" font-weight="normal">400</text>
<text x="600.00" y="726.00" font-family="Inter, Helvetica, Arial, sans-serif" font-size="14" fill="#111827" text-anchor="middle" font-weight="bold">ef_search</text>
<polyline points="100.00,291.36 152.11,239.18 204.21,222.34 256.32,207.19 360.53,192.04 464.74,171.84 568.95,171.84 829.47,163.42 1090.00,163.42" fill="none" stroke="#7c3aed" stroke-width="3.5" stroke-linejoin="round" stroke-linecap="round" />
<circle cx="100.00" cy="291.36" r="5.00" fill="#7c3aed" />
<circle cx="152.11" cy="239.18" r="5.00" fill="#7c3aed" />
<circle cx="204.21" cy="222.34" r="5.00" fill="#7c3aed" />
<circle cx="256.32" cy="207.19" r="5.00" fill="#7c3aed" />
<circle cx="360.53" cy="192.04" r="5.00" fill="#7c3aed" />
<circle cx="464.74" cy="171.84" r="5.00" fill="#7c3aed" />
<circle cx="568.95" cy="171.84" r="5.00" fill="#7c3aed" />
<circle cx="829.47" cy="163.42" r="5.00" fill="#7c3aed" />
<circle cx="1090.00" cy="163.42" r="5.00" fill="#7c3aed" />
<polyline points="100.00,518.64 152.11,267.79 204.21,234.12 256.32,215.61 360.53,195.40 464.74,181.94 568.95,176.89 829.47,171.84 1090.00,171.84" fill="none" stroke="#ea580c" stroke-width="3.5" stroke-linejoin="round" stroke-linecap="round" />
<circle cx="100.00" cy="518.64" r="5.00" fill="#ea580c" />
<circle cx="152.11" cy="267.79" r="5.00" fill="#ea580c" />
<circle cx="204.21" cy="234.12" r="5.00" fill="#ea580c" />
<circle cx="256.32" cy="215.61" r="5.00" fill="#ea580c" />
<circle cx="360.53" cy="195.40" r="5.00" fill="#ea580c" />
<circle cx="464.74" cy="181.94" r="5.00" fill="#ea580c" />
<circle cx="568.95" cy="176.89" r="5.00" fill="#ea580c" />
<circle cx="829.47" cy="171.84" r="5.00" fill="#ea580c" />
<circle cx="1090.00" cy="171.84" r="5.00" fill="#ea580c" />
</svg>